<svg xmlns="http://www.w3.org/2000/svg" version="1.1" xmlns:xlink="http://www.w3.org/1999/xlink" xmlns:svgjs="http://svgjs.dev/svgjs" width="1500" height="1500" viewBox="0 0 1500 1500"><rect width="1500" height="1500" fill="#ffffff"></rect><g transform="matrix(0.6666666666666666,0,0,0.6666666666666666,141.58180957212767,496.08766883568956)"><svg viewBox="0 0 464 154" data-background-color="#ffffff" preserveAspectRatio="xMidYMid meet" height="497" width="1500" xmlns="http://www.w3.org/2000/svg" xmlns:xlink="http://www.w3.org/1999/xlink"><g id="tight-bounds" transform="matrix(1,0,0,1,68.36887435247286,52.77938104067863)"><svg viewBox="0 0 395.52 32.766938314529696" height="32.766938314529696" width="395.52"><g><svg viewBox="0 0 438.00518777742906 36.28663270971636" height="32.766938314529696" width="395.52"><g transform="matrix(1,0,0,1,42.48518777742909,5.015012190706097)"><svg viewBox="0 0 395.52 26.256608328304164" height="26.256608328304164" width="395.52"><g id="textblocktransform"><svg viewBox="0 0 395.52 26.256608328304164" height="26.256608328304164" width="395.52" id="textblock"><g><svg viewBox="0 0 395.52 26.256608328304164" height="26.256608328304164" width="395.52"><g transform="matrix(1,0,0,1,0,0)"><svg width="395.52" viewBox="2.25 -36.6 566.31 37.6" height="26.256608328304164" data-palette-color="#14914a"><path d="M10.4-32.59L10.4-1.49 18.51-1.76Q20.29-1.81 21.53-2.16 22.78-2.51 23.68-3.28 24.58-4.05 25.16-4.9 25.73-5.74 26.44-7.15L26.44-7.15 27.15-6.86 24.76-0.34 24.34 0 7.1 0Q6.64-1.03 6.64-2.39L6.64-2.39 6.64-28.1Q6.64-31.54 5.82-32.74 5-33.94 2.34-33.74L2.34-33.74 2.25-34.2Q6.27-35.4 9.91-35.4L9.91-35.4Q10.4-34.06 10.4-32.59L10.4-32.59ZM39.79-32.59L39.79-32.59 39.79-10.3Q39.79-7.62 40.31-5.82 40.82-4.03 41.73-2.95 42.65-1.88 43.93-1.43 45.21-0.98 46.75-0.98L46.75-0.98Q48.22-0.98 49.79-1.38 51.36-1.78 52.94-2.5 54.51-3.22 56.02-4.21 57.52-5.2 58.84-6.35L58.84-6.35 58.84-28.1Q58.84-29.71 58.69-30.8 58.54-31.88 58.15-32.54 57.76-33.2 57.05-33.48 56.35-33.76 55.54-33.76 54.73-33.76 54.54-33.74L54.54-33.74 54.44-34.2Q58.42-35.4 62.08-35.4L62.08-35.4Q62.6-34.11 62.6-32.59L62.6-32.59 62.6-4.39Q62.6-3.39 62.78-2.69 62.96-1.98 63.4-1.49 63.84-1 64.58-0.7 65.33-0.39 66.45-0.2L66.45-0.2 66.23 0.39Q64.77 0.2 63.69 0.1 62.62 0 61.89 0L61.89 0Q61.2 0 60.36 0.1 59.52 0.2 58.49 0.39L58.49 0.39 58.35 0.15Q58.84-0.56 58.84-2.44L58.84-2.44 58.84-4.44Q54.81-1.56 51.55-0.28 48.29 1 45.46 1L45.46 1Q43.77 1 42.09 0.61 40.4 0.22 39.06-0.73 37.72-1.68 36.87-3.26 36.03-4.83 36.03-7.2L36.03-7.2 36.03-28.1Q36.03-29.71 35.89-30.8 35.74-31.88 35.35-32.54 34.96-33.2 34.25-33.48 33.54-33.76 32.74-33.76 31.93-33.76 31.74-33.74L31.74-33.74 31.64-34.2Q35.62-35.4 39.3-35.4L39.3-35.4Q39.79-34.01 39.79-32.59ZM103.66-34.11L103.66 0 102.66 0Q101-2.25 93.13-12.17 85.27-22.09 81.9-26.54L81.9-26.54Q80.44-28.44 79.1-31.01L79.1-31.01 78.95-30.91 78.95-3.15Q78.95-2.22 79.55-1.71 80.15-1.2 80.87-1.01 81.59-0.83 82.86-0.61 84.13-0.39 84.35-0.34L84.35-0.34 84.35 0.15Q79.73-0.15 76.95 0.15L76.95 0.15Q76.8-0.51 76.8-1.15L76.8-1.15 76.8-29.25Q76.73-30.98 76.19-32.35L76.19-32.35Q75.48-34.25 72.94-34.06L72.94-34.06 72.94-34.55Q76.36-35.4 79.66-35.4L79.66-35.4 98.04-11.89Q99.34-10.25 100.1-8.95 100.87-7.64 101.61-5.69L101.61-5.69 101.61-31.1Q101.61-32.81 100.32-33.53 99.04-34.25 96.31-34.06L96.31-34.06 96.19-34.55Q99.36-35.33 103.24-35.4L103.24-35.4Q103.66-34.77 103.66-34.11L103.66-34.11ZM140.01-3.1L140.01-3.1 140.01-7.1Q140.01-10.55 139.18-11.73 138.35-12.92 135.69-12.74L135.69-12.74 135.59-13.21Q139.62-14.4 143.25-14.4L143.25-14.4Q143.74-13.06 143.74-11.6L143.74-11.6 143.74-4.59Q143.74-2.29 144.21-1.66L144.21-1.66 144.06-1.39Q142.13-1.39 139.89-0.79 137.64-0.2 135.08 0.4 132.51 1 129.85 1L129.85 1Q126.16 1 122.99-0.35 119.82-1.71 117.53-4.13 115.25-6.54 113.95-10.08 112.64-13.62 112.64-17.8L112.64-17.8Q112.64-21.63 113.68-24.77 114.71-27.91 116.51-30.05 118.3-32.2 120.82-33.68 123.33-35.16 126.23-35.83 129.12-36.5 132.39-36.5L132.39-36.5Q137.98-36.5 142.89-34.2L142.89-34.2Q142.03-31.15 140.45-27.76L140.45-27.76 139.79-28Q140.18-30.91 139.96-32.79L139.96-32.79Q138.88-33.4 137.83-33.8 136.78-34.2 135.61-34.44 134.44-34.67 133.09-34.75 131.73-34.84 130.05-34.84L130.05-34.84Q127.8-34.84 125.86-34.27 123.92-33.69 122.23-32.37 120.55-31.05 119.35-29.06 118.16-27.08 117.47-24.11 116.79-21.14 116.79-17.41L116.79-17.41Q116.79-13.82 118.01-10.64 119.23-7.47 121.24-5.3 123.26-3.13 125.9-1.87 128.53-0.61 131.34-0.61L131.34-0.61Q134.12-0.61 136.02-1.11 137.91-1.61 140.01-3.1ZM188.78-32.86L188.78-32.86Q184.85-34.84 180.97-34.84L180.97-34.84Q177.89-34.84 175.43-33.85 172.96-32.86 171.22-30.74 169.47-28.61 168.54-25.32 167.61-22.02 167.61-17.41L167.61-17.41Q167.61-15.06 168.08-12.92 168.54-10.77 169.41-8.9 170.28-7.03 171.53-5.51 172.79-3.98 174.38-2.89 175.96-1.81 177.86-1.21 179.75-0.61 181.87-0.61L181.87-0.61Q183.41-0.61 184.67-0.76 185.93-0.9 187.05-1.28 188.17-1.66 189.27-2.33 190.37-3 191.61-4.05L191.61-4.05 192.61-2.91Q191.17-1.83 189.83-1.1 188.49-0.37 187.08 0.11 185.68 0.59 184.12 0.79 182.56 1 180.68 1L180.68 1Q176.97 1 173.8-0.34 170.64-1.68 168.35-4.14 166.05-6.59 164.76-10.07 163.46-13.55 163.46-17.8L163.46-17.8Q163.46-22.14 164.89-25.62 166.32-29.1 168.84-31.54 171.35-33.98 174.77-35.29 178.19-36.6 182.17-36.6L182.17-36.6Q187.19-36.6 191.78-34.11L191.78-34.11Q191-30.15 189.37-26.76L189.37-26.76 188.73-27.1Q189.03-28.88 189.03-30.64L189.03-30.64Q189.03-32.2 188.78-32.86ZM196.81-0.49L211.73-33.84Q212.56-34.35 213.63-35.79L213.63-35.79 213.88-35.79 227.33-3.39Q228.23-1.22 231.02-0.34L231.02-0.34 231.02 0.1Q229.43-0.07 227.21 0.04 224.99 0.15 223.28 0.44L223.28 0.44 223.08 0.2Q223.57-0.44 223.31-1.93 223.06-3.42 221.81-6.45L221.81-6.45 217.78-16.55Q210.61-16.67 205.92-16.5L205.92-16.5 200.28-3.39Q199.77-2.27 200.66-1.51 201.55-0.76 204.16-0.24L204.16-0.24 204.06 0.2Q199.81-0.12 197.13 0L197.13 0Q196.98-0.15 196.81-0.49L196.81-0.49ZM212.07-30.69L206.58-17.94Q210.12-17.85 217.17-17.94L217.17-17.94 212.07-30.69ZM264.44-34.11L264.44 0 263.43 0Q261.77-2.25 253.91-12.17 246.05-22.09 242.68-26.54L242.68-26.54Q241.22-28.44 239.88-31.01L239.88-31.01 239.73-30.91 239.73-3.15Q239.73-2.22 240.33-1.71 240.92-1.2 241.65-1.01 242.37-0.83 243.63-0.61 244.9-0.39 245.12-0.34L245.12-0.34 245.12 0.15Q240.51-0.15 237.73 0.15L237.73 0.15Q237.58-0.51 237.58-1.15L237.58-1.15 237.58-29.25Q237.51-30.98 236.97-32.35L236.97-32.35Q236.26-34.25 233.72-34.06L233.72-34.06 233.72-34.55Q237.14-35.4 240.44-35.4L240.44-35.4 258.82-11.89Q260.11-10.25 260.88-8.95 261.65-7.64 262.38-5.69L262.38-5.69 262.38-31.1Q262.38-32.81 261.1-33.53 259.82-34.25 257.09-34.06L257.09-34.06 256.96-34.55Q260.14-35.33 264.02-35.4L264.02-35.4Q264.44-34.77 264.44-34.11L264.44-34.11ZM298.73-32.86L298.73-32.86Q294.8-34.84 290.92-34.84L290.92-34.84Q287.85-34.84 285.38-33.85 282.91-32.86 281.17-30.74 279.42-28.61 278.5-25.32 277.57-22.02 277.57-17.41L277.57-17.41Q277.57-15.06 278.03-12.92 278.5-10.77 279.36-8.9 280.23-7.03 281.49-5.51 282.74-3.98 284.33-2.89 285.92-1.81 287.81-1.21 289.7-0.61 291.83-0.61L291.83-0.61Q293.36-0.61 294.62-0.76 295.88-0.9 297-1.28 298.12-1.66 299.22-2.33 300.32-3 301.57-4.05L301.57-4.05 302.57-2.91Q301.13-1.83 299.78-1.1 298.44-0.37 297.04 0.11 295.63 0.59 294.07 0.79 292.51 1 290.63 1L290.63 1Q286.92 1 283.76-0.34 280.6-1.68 278.3-4.14 276.01-6.59 274.71-10.07 273.42-13.55 273.42-17.8L273.42-17.8Q273.42-22.14 274.85-25.62 276.27-29.1 278.79-31.54 281.3-33.98 284.72-35.29 288.14-36.6 292.12-36.6L292.12-36.6Q297.15-36.6 301.74-34.11L301.74-34.11Q300.96-30.15 299.32-26.76L299.32-26.76 298.69-27.1Q298.98-28.88 298.98-30.64L298.98-30.64Q298.98-32.2 298.73-32.86ZM316.68-18.19L316.68-1.49 325.27-1.76Q327.05-1.81 328.27-2.17 329.49-2.54 330.37-3.21 331.25-3.88 331.91-4.87 332.57-5.86 333.23-7.15L333.23-7.15 333.94-6.86 331.52-0.34 331.13 0 313.38 0Q312.92-1 312.92-2.39L312.92-2.39 312.92-28.34Q312.92-29.96 312.77-30.99 312.62-32.03 312.23-32.65 311.84-33.28 311.15-33.52 310.45-33.76 309.35-33.76L309.35-33.76Q309.18-33.76 309-33.76 308.82-33.76 308.62-33.74L308.62-33.74 308.52-34.45Q315.48-35.55 323.85-35.55L323.85-35.55Q328.13-35.55 332.81-35.25L332.81-35.25 332.99-34.84 330.67-28.76 329.88-29Q330.08-29.93 330.18-30.71 330.28-31.49 330.28-32.24 330.28-32.98 330.08-33.64L330.08-33.64Q328.25-33.81 326.48-33.9 324.71-33.98 322.95-33.98L322.95-33.98Q319.75-33.98 316.68-33.69L316.68-33.69 316.68-19.9 330.03-20.63 330.28-20.36 329.13-18.36Q328.03-18.41 326.91-18.43 325.78-18.46 324.61-18.46L324.61-18.46Q322.71-18.46 320.73-18.38 318.75-18.31 316.68-18.19L316.68-18.19ZM349.56-18.99L349.56-18.99 349.56-19.8Q352-20.07 353.73-20.78 355.47-21.48 356.59-22.58 357.71-23.68 358.24-25.17 358.76-26.66 358.76-28.49L358.76-28.49Q358.69-29.96 358.34-30.96 357.98-31.96 357.15-32.58 356.32-33.2 354.94-33.48 353.56-33.76 351.44-33.76L351.44-33.76Q350.66-33.76 349.79-33.73 348.93-33.69 347.92-33.64L347.92-33.64Q348.07-33.06 348.07-32.4L348.07-32.4 348.07-4.39Q348.07-3.39 348.25-2.69 348.44-1.98 348.88-1.49 349.32-1 350.06-0.7 350.81-0.39 351.93-0.2L351.93-0.2 351.71 0.39Q350.22 0.2 349.14 0.1 348.07 0 347.36 0L347.36 0Q346.7 0 345.85 0.1 344.99 0.2 343.97 0.39L343.97 0.39 343.82 0.15Q344.31-0.56 344.31-2.44L344.31-2.44 344.31-28.1Q344.31-29.71 344.16-30.8 344.02-31.88 343.63-32.54 343.24-33.2 342.53-33.48 341.82-33.76 340.01-33.74L340.01-33.74 339.92-34.45Q341.55-34.67 342.81-34.84 344.07-35.01 345.2-35.14 346.34-35.28 347.45-35.38 348.56-35.47 349.58-35.53 350.61-35.6 351.23-35.62 351.85-35.64 352.42-35.64L352.42-35.64Q354.64-35.64 356.53-35.31 358.42-34.99 359.8-34.17 361.18-33.35 361.95-31.96 362.72-30.57 362.72-28.44L362.72-28.44Q362.72-26.86 362.02-25.44 361.33-24.02 360.14-22.85 358.96-21.68 357.38-20.79 355.81-19.9 354.03-19.36L354.03-19.36 354.03-19.09 363.96-4.91Q365.26-3.03 367.31-2L367.31-2Q369.31-1.15 369.74-1 370.17-0.85 370.73-0.66L370.73-0.66 370.73-0.2Q366.41-0.2 363.48 0.71L363.48 0.71 363.11 0.49Q363.11 0.15 362.69-0.52 362.28-1.2 361.68-2.04 361.08-2.88 359.55-5.09 358.01-7.3 349.56-18.99ZM385.25-34.69L385.54-35.25Q389.11-35.57 392.45-35.71 395.8-35.84 399.07-35.84L399.07-35.84Q402.34-35.84 406.17-35.68 410-35.52 414.55-35.21L414.55-35.21 414.84-34.69 412.54-28.76 411.74-29Q411.91-29.86 411.99-30.6 412.08-31.35 412.08-32.01L412.08-32.01Q412.08-32.91 411.93-33.64L411.93-33.64Q408.83-33.84 406.35-33.94 403.88-34.03 401.95-34.06L401.95-34.06 401.95-4.39Q401.95-3.39 402.13-2.69 402.31-1.98 402.75-1.49 403.19-1 403.93-0.7 404.66-0.39 405.78-0.2L405.78-0.2 405.59 0.39Q404.12 0.2 403.05 0.1 401.97 0 401.24 0L401.24 0Q400.56 0 399.71 0.1 398.87 0.2 397.85 0.39L397.85 0.39 397.7 0.15Q398.19-0.56 398.19-2.44L398.19-2.44 398.19-34.06Q396.33-34.03 393.84-33.94 391.35-33.84 388.15-33.64L388.15-33.64Q388.01-32.84 388.01-31.93L388.01-31.93Q388.01-30.64 388.35-29L388.35-29 387.54-28.76 385.25-34.69ZM444.4-32.86L444.4-32.86Q440.47-34.84 436.59-34.84L436.59-34.84Q433.51-34.84 431.05-33.85 428.58-32.86 426.84-30.74 425.09-28.61 424.16-25.32 423.23-22.02 423.23-17.41L423.23-17.41Q423.23-15.06 423.7-12.92 424.16-10.77 425.03-8.9 425.9-7.03 427.15-5.51 428.41-3.98 430-2.89 431.58-1.81 433.48-1.21 435.37-0.61 437.49-0.61L437.49-0.61Q439.03-0.61 440.29-0.76 441.54-0.9 442.67-1.28 443.79-1.66 444.89-2.33 445.99-3 447.23-4.05L447.23-4.05 448.23-2.91Q446.79-1.83 445.45-1.1 444.11-0.37 442.7 0.11 441.3 0.59 439.74 0.79 438.18 1 436.3 1L436.3 1Q432.58 1 429.42-0.34 426.26-1.68 423.97-4.14 421.67-6.59 420.38-10.07 419.08-13.55 419.08-17.8L419.08-17.8Q419.08-22.14 420.51-25.62 421.94-29.1 424.45-31.54 426.97-33.98 430.39-35.29 433.81-36.6 437.78-36.6L437.78-36.6Q442.81-36.6 447.4-34.11L447.4-34.11Q446.62-30.15 444.99-26.76L444.99-26.76 444.35-27.1Q444.65-28.88 444.65-30.64L444.65-30.64Q444.65-32.2 444.4-32.86ZM463.83-18.99L463.83-18.99 463.83-19.8Q466.27-20.07 468.01-20.78 469.74-21.48 470.86-22.58 471.99-23.68 472.51-25.17 473.04-26.66 473.04-28.49L473.04-28.49Q472.96-29.96 472.61-30.96 472.26-31.96 471.42-32.58 470.59-33.2 469.22-33.48 467.84-33.76 465.71-33.76L465.71-33.76Q464.93-33.76 464.06-33.73 463.2-33.69 462.2-33.64L462.2-33.64Q462.34-33.06 462.34-32.4L462.34-32.4 462.34-4.39Q462.34-3.39 462.53-2.69 462.71-1.98 463.15-1.49 463.59-1 464.33-0.7 465.08-0.39 466.2-0.2L466.2-0.2 465.98 0.39Q464.49 0.2 463.42 0.1 462.34 0 461.63 0L461.63 0Q460.98 0 460.12 0.1 459.27 0.2 458.24 0.39L458.24 0.39 458.09 0.15Q458.58-0.56 458.58-2.44L458.58-2.44 458.58-28.1Q458.58-29.71 458.44-30.8 458.29-31.88 457.9-32.54 457.51-33.2 456.8-33.48 456.09-33.76 454.29-33.74L454.29-33.74 454.19-34.45Q455.82-34.67 457.08-34.84 458.34-35.01 459.47-35.14 460.61-35.28 461.72-35.38 462.83-35.47 463.86-35.53 464.88-35.6 465.5-35.62 466.13-35.64 466.69-35.64L466.69-35.64Q468.91-35.64 470.8-35.31 472.69-34.99 474.07-34.17 475.45-33.35 476.22-31.96 476.99-30.57 476.99-28.44L476.99-28.44Q476.99-26.86 476.3-25.44 475.6-24.02 474.42-22.85 473.23-21.68 471.66-20.79 470.08-19.9 468.3-19.36L468.3-19.36 468.3-19.09 478.24-4.91Q479.53-3.03 481.58-2L481.58-2Q483.58-1.15 484.01-1 484.44-0.85 485-0.66L485-0.66 485-0.2Q480.68-0.2 477.75 0.71L477.75 0.71 477.38 0.49Q477.38 0.15 476.97-0.52 476.55-1.2 475.95-2.04 475.36-2.88 473.82-5.09 472.28-7.3 463.83-18.99ZM510.17-32.54L510.17-32.54 510.17-2.15Q511.48-1.98 512.7-1.89 513.92-1.81 515.1-1.81L515.1-1.81Q519.22-1.81 522.49-2.87 525.77-3.93 528.04-6.09 530.31-8.25 531.52-11.49 532.72-14.72 532.72-19.09L532.72-19.09Q532.7-21.97 531.99-24.19 531.28-26.42 530.01-28.06 528.74-29.71 527.02-30.82 525.3-31.93 523.29-32.63 521.27-33.33 519.04-33.62 516.81-33.91 514.51-33.91L514.51-33.91Q513.41-33.91 512.31-33.84 511.21-33.76 510.07-33.64L510.07-33.64Q510.12-33.3 510.14-33.02 510.17-32.74 510.17-32.54ZM502.11-33.74L502.01-34.45Q504.13-34.72 505.82-34.92 507.5-35.13 509.09-35.28 510.68-35.42 512.36-35.5 514.05-35.57 516.17-35.57L516.17-35.57Q518-35.57 519.52-35.47 521.03-35.38 522.38-35.14 523.74-34.91 525.05-34.53 526.35-34.16 527.79-33.62L527.79-33.62Q529.72-32.89 531.34-31.65 532.97-30.42 534.14-28.64 535.31-26.86 535.96-24.49 536.61-22.12 536.61-19.09L536.61-19.09Q536.58-15.5 535.68-12.7 534.77-9.89 533.16-7.76 531.55-5.64 529.34-4.15 527.13-2.66 524.54-1.73 521.96-0.81 519.08-0.39 516.2 0.02 513.24 0.02L513.24 0.02Q513 0.02 511.64 0.04 510.29 0.05 508.75 0.17 507.21 0.29 506.06 0.44L506.06 0.44 505.92 0.2Q506.41-0.51 506.41-2.39L506.41-2.39 506.41-28.1Q506.41-29.71 506.26-30.8 506.11-31.88 505.72-32.54 505.33-33.2 504.62-33.48 503.92-33.76 503.28-33.76 502.65-33.76 502.47-33.76 502.3-33.76 502.11-33.74L502.11-33.74ZM557.21-0.15L557.21-0.15 551.47 0.05Q550.15 0.1 549.14 0.22 548.13 0.34 547.42 0.49L547.42 0.49 547.27 0.24Q547.76-0.46 547.76-2.34L547.76-2.34 547.76-28.1Q547.76-29.76 547.61-30.86 547.47-31.96 547.06-32.6 546.66-33.25 545.97-33.51 545.27-33.76 544.46-33.76 543.66-33.76 543.46-33.74L543.46-33.74 543.37-34.45Q546.32-34.84 549.19-35.13 552.06-35.42 553.08-35.46 554.11-35.5 555.06-35.5L555.06-35.5Q557.72-35.5 559.78-35.17 561.85-34.84 563.25-34.08 564.65-33.33 565.39-32.12 566.12-30.91 566.12-29.15L566.12-29.15Q566.12-27.64 565.53-26.27 564.95-24.9 563.91-23.73 562.87-22.56 561.48-21.61 560.09-20.65 558.48-20L558.48-20 558.48-19.8Q560.38-19.56 562.2-18.95 564.02-18.33 565.44-17.25 566.85-16.16 567.71-14.56 568.56-12.96 568.56-10.74L568.56-10.74Q568.56-8.13 567.57-6.14 566.58-4.15 564.97-2.82 563.36-1.49 561.32-0.82 559.28-0.15 557.21-0.15ZM551.52-32.06L551.52-32.06 551.52-1.54 555.72-1.34Q559.77-1.15 562.25-3.31 564.73-5.47 564.73-9.91L564.73-9.91Q564.73-12.23 563.82-14.03 562.92-15.82 561.32-16.89 559.72-17.97 557.67-18.51 555.62-19.04 553.18-18.99L553.18-18.99 553.18-20.04Q555.5-20.09 557.55-21.04 559.6-22 560.98-23.94 562.36-25.88 562.36-28.44L562.36-28.44Q562.36-30.66 561.44-31.86 560.53-33.06 559.02-33.54 557.5-34.03 555.52-33.98 553.55-33.94 551.42-33.64L551.42-33.64Q551.4-33.64 551.37-33.64L551.37-33.64Q551.52-32.84 551.52-32.06Z" opacity="1" transform="matrix(1,0,0,1,0,0)" fill="#000000" class="wordmark-text-0" data-fill-palette-color="primary" id="text-0"></path></svg></g></svg></g></svg></g></svg></g><g><svg viewBox="0 0 36.28663270971636 36.28663270971636" height="36.28663270971636" width="36.28663270971636"><g><svg xmlns="http://www.w3.org/2000/svg" data-name="Layer 1" viewBox="0 0 128 128" x="0" y="0" height="36.28663270971636" width="36.28663270971636" class="icon-icon-0" data-fill-palette-color="accent" id="icon-0"><path d="M45.19 126H2V82.81a1 1 0 0 0-2 0V127a1 1 0 0 0 1 1H45.19a1 1 0 0 0 0-2Z" fill="#000000" data-fill-palette-color="accent"></path><path d="M127 81.81a1 1 0 0 0-1 1V126H82.81a1 1 0 0 0 0 2H127a1 1 0 0 0 1-1V82.81A1 1 0 0 0 127 81.81Z" fill="#000000" data-fill-palette-color="accent"></path><path d="M1 46.19a1 1 0 0 0 1-1V2H45.19a1 1 0 0 0 0-2H1A1 1 0 0 0 0 1V45.19A1 1 0 0 0 1 46.19Z" fill="#000000" data-fill-palette-color="accent"></path><path d="M127 0H82.81a1 1 0 0 0 0 2H126V45.19a1 1 0 0 0 2 0V1A1 1 0 0 0 127 0Z" fill="#000000" data-fill-palette-color="accent"></path><path d="M5.58 86a1 1 0 0 0-1 1v35.46a1 1 0 0 0 1 1H41a1 1 0 0 0 0-2H6.58V87A1 1 0 0 0 5.58 86Z" fill="#000000" data-fill-palette-color="accent"></path><path d="M122.42 86a1 1 0 0 0-1 1v34.46H87a1 1 0 0 0 0 2h35.46a1 1 0 0 0 1-1V87A1 1 0 0 0 122.42 86Z" fill="#000000" data-fill-palette-color="accent"></path><path d="M42 5.58a1 1 0 0 0-1-1H5.58a1 1 0 0 0-1 1V41a1 1 0 0 0 2 0V6.58H41A1 1 0 0 0 42 5.58Z" fill="#000000" data-fill-palette-color="accent"></path><path d="M123.42 5.58a1 1 0 0 0-1-1H87a1 1 0 0 0 0 2h34.46V41a1 1 0 0 0 2 0Z" fill="#000000" data-fill-palette-color="accent"></path><path d="M64 32A32 32 0 1 0 96 64 32 32 0 0 0 64 32Zm0 56A24 24 0 1 1 88 64 24 24 0 0 1 64 88Z" fill="#000000" data-fill-palette-color="accent"></path><path d="M64 22a42 42 0 1 0 42 42A42 42 0 0 0 64 22Zm0 76A34 34 0 1 1 98 64 34 34 0 0 1 64 98Z" fill="#000000" data-fill-palette-color="accent"></path><path d="M64 42A22 22 0 1 0 86 64 22 22 0 0 0 64 42Z" fill="#000000" data-fill-palette-color="accent"></path><path d="M64 10a54 54 0 1 0 54 54A54.06 54.06 0 0 0 64 10Zm0 98a44 44 0 1 1 44-44A44 44 0 0 1 64 108Z" fill="#000000" data-fill-palette-color="accent"></path></svg></g></svg></g></svg></g><defs></defs></svg><rect width="395.52" height="32.766938314529696" fill="none" stroke="none" visibility="hidden"></rect></g></svg></g></svg>