<?xml version="1.0" encoding="UTF-8"?>
<svg xmlns="http://www.w3.org/2000/svg" xmlns:xlink="http://www.w3.org/1999/xlink" width="1252pt" height="408.75pt" viewBox="0 0 1252 408.75" version="1.1">
<defs>
<clipPath id="clip1">
  <path d="M 294.675781 38.382812 L 1249.558594 38.382812 L 1249.558594 271.511719 L 294.675781 271.511719 Z M 294.675781 38.382812 "/>
</clipPath>
<clipPath id="clip2">
  <path d="M 490.425781 326.546875 L 1053.804688 326.546875 L 1053.804688 372.085938 L 490.425781 372.085938 Z M 490.425781 326.546875 "/>
</clipPath>
<clipPath id="clip3">
  <path d="M 37 38.382812 L 257.125 38.382812 L 257.125 238.75 L 37 238.75 Z M 37 38.382812 "/>
</clipPath>
</defs>
<g id="surface1">
<g clip-path="url(#clip1)" clip-rule="nonzero">
<path style=" stroke:none;fill-rule:nonzero;fill:rgb(83.499146%,17.298889%,13.699341%);fill-opacity:1;" d="M 375.480469 212.394531 L 294.75 212.394531 L 294.75 41.820312 L 316.308594 41.820312 L 316.308594 193.074219 L 375.480469 193.074219 Z M 446.167969 214.6875 C 438.195312 214.6875 430.738281 212.6875 423.785156 208.683594 C 416.835938 204.71875 411.214844 198.949219 406.921875 191.382812 C 402.625 183.777344 400.480469 174.679688 400.480469 164.089844 L 400.480469 98.695312 L 420.949219 98.695312 L 420.949219 161.195312 C 420.949219 170.183594 423.625 178.117188 428.972656 184.996094 C 434.359375 191.871094 441.910156 195.3125 451.625 195.3125 C 459.59375 195.3125 466.707031 192.453125 472.96875 186.742188 C 479.226562 180.992188 482.355469 172.675781 482.355469 161.796875 L 482.355469 98.695312 L 502.824219 98.695312 L 502.824219 212.394531 L 483.882812 212.394531 L 483.882812 194 C 479.699219 200.695312 474.296875 205.808594 467.671875 209.339844 C 461.011719 212.90625 453.84375 214.6875 446.167969 214.6875 M 559.648438 212.394531 L 539.179688 212.394531 L 539.179688 98.695312 L 558.117188 98.695312 L 558.117188 117.039062 C 562.304688 110.339844 567.707031 105.230469 574.332031 101.699219 C 580.988281 98.167969 588.15625 96.40625 595.835938 96.40625 C 603.953125 96.40625 611.449219 98.386719 618.324219 102.355469 C 625.203125 106.355469 630.789062 112.105469 635.082031 119.601562 C 639.375 127.136719 641.523438 136.269531 641.523438 147.003906 L 641.523438 212.394531 L 621.054688 212.394531 L 621.054688 149.84375 C 621.054688 140.890625 618.378906 132.957031 613.03125 126.042969 C 607.644531 119.167969 600.09375 115.726562 590.378906 115.726562 C 582.410156 115.726562 575.292969 118.601562 569.035156 124.351562 C 562.777344 130.101562 559.648438 138.417969 559.648438 149.296875 Z M 721.707031 271.511719 C 712.972656 271.511719 705.042969 270.253906 697.910156 267.746094 C 690.777344 265.199219 684.425781 261.722656 678.859375 257.320312 L 684.535156 234.175781 C 688.320312 239.632812 693.378906 244.054688 699.710938 247.4375 C 706.042969 250.859375 713.300781 252.570312 721.488281 252.570312 C 734.261719 252.570312 744.597656 248.710938 752.492188 241 C 760.390625 233.320312 764.339844 223.402344 764.339844 211.25 L 764.339844 197.441406 C 759.28125 202.5 753.3125 206.5 746.433594 209.449219 C 739.558594 212.433594 732.1875 213.925781 724.328125 213.925781 C 713.992188 213.925781 704.511719 211.304688 695.890625 206.0625 C 687.300781 200.824219 680.460938 193.78125 675.367188 184.941406 C 670.234375 176.0625 667.667969 166.253906 667.667969 155.519531 C 667.667969 144.785156 670.234375 134.996094 675.367188 126.152344 C 680.460938 117.308594 687.300781 110.269531 695.890625 105.027344 C 704.511719 99.789062 713.992188 97.167969 724.328125 97.167969 C 732.1875 97.167969 739.558594 98.625 746.433594 101.535156 C 753.3125 104.445312 759.28125 108.484375 764.339844 113.652344 L 764.339844 98.695312 L 783.277344 98.695312 L 783.277344 212.394531 C 783.277344 224.769531 780.402344 235.375 774.65625 244.21875 C 768.90625 253.0625 761.355469 259.828125 752 264.523438 C 742.648438 269.183594 732.550781 271.511719 721.707031 271.511719 M 727.003906 195.3125 C 734.207031 195.3125 740.738281 193.527344 746.597656 189.960938 C 752.492188 186.359375 757.167969 181.554688 760.625 175.550781 C 764.121094 169.546875 765.867188 162.871094 765.867188 155.519531 C 765.867188 148.203125 764.121094 141.546875 760.625 135.542969 C 757.167969 129.539062 752.492188 124.734375 746.597656 121.132812 C 740.738281 117.527344 734.207031 115.726562 727.003906 115.726562 C 719.796875 115.726562 713.265625 117.527344 707.40625 121.132812 C 701.511719 124.734375 696.835938 129.539062 693.378906 135.542969 C 689.886719 141.546875 688.136719 148.203125 688.136719 155.519531 C 688.136719 162.871094 689.886719 169.546875 693.378906 175.550781 C 696.835938 181.554688 701.511719 186.359375 707.40625 189.960938 C 713.265625 193.527344 719.796875 195.3125 727.003906 195.3125 M 856.039062 61.144531 L 810.570312 61.144531 L 810.570312 41.820312 L 923.125 41.820312 L 923.125 61.144531 L 877.65625 61.144531 L 877.65625 212.394531 L 856.039062 212.394531 Z M 1032.675781 215.835938 C 1020.410156 215.835938 1008.875 213.523438 998.066406 208.902344 C 987.296875 204.28125 977.835938 197.929688 969.683594 189.851562 C 961.53125 181.773438 955.144531 172.347656 950.523438 161.578125 C 945.902344 150.84375 943.59375 139.34375 943.59375 127.082031 C 943.59375 114.855469 945.902344 103.375 950.523438 92.636719 C 955.144531 81.867188 961.53125 72.441406 969.683594 64.363281 C 977.835938 56.285156 987.296875 49.933594 998.066406 45.3125 C 1008.875 40.691406 1020.410156 38.382812 1032.675781 38.382812 C 1044.792969 38.382812 1056.164062 40.636719 1066.789062 45.148438 C 1077.414062 49.625 1086.765625 55.777344 1094.84375 63.597656 L 1088.570312 89.746094 C 1082.78125 80.429688 1074.996094 72.953125 1065.207031 67.3125 C 1055.382812 61.671875 1044.539062 58.851562 1032.675781 58.851562 C 1020.15625 58.851562 1008.875 61.925781 998.832031 68.074219 C 988.789062 74.1875 980.800781 82.394531 974.871094 92.691406 C 968.9375 102.992188 965.972656 114.453125 965.972656 127.082031 C 965.972656 139.597656 968.9375 151.042969 974.871094 161.414062 C 980.800781 171.785156 988.789062 180.027344 998.832031 186.140625 C 1008.875 192.253906 1020.15625 195.3125 1032.675781 195.3125 C 1044.683594 195.3125 1055.546875 192.472656 1065.261719 186.796875 C 1075.011719 181.121094 1082.78125 173.675781 1088.570312 164.472656 L 1094.84375 190.617188 C 1086.765625 198.296875 1077.414062 204.410156 1066.789062 208.957031 C 1056.164062 213.542969 1044.792969 215.835938 1032.675781 215.835938 M 1148.828125 212.394531 L 1127.214844 212.394531 L 1127.214844 41.820312 L 1170.0625 41.820312 C 1180.796875 41.820312 1190.023438 43.96875 1197.738281 48.261719 C 1205.453125 52.554688 1211.417969 58.214844 1215.640625 65.238281 C 1219.898438 72.261719 1222.027344 79.9375 1222.027344 88.273438 C 1222.027344 97.625 1219.371094 106.011719 1214.058594 113.433594 C 1208.746094 120.894531 1201.46875 126.40625 1192.222656 129.972656 L 1249.484375 212.394531 L 1224.265625 212.394531 L 1170.0625 133.902344 L 1148.828125 133.902344 Z M 1148.828125 61.144531 L 1148.828125 115.726562 L 1170.0625 115.726562 C 1177.414062 115.726562 1183.382812 114.382812 1187.964844 111.6875 C 1192.585938 108.960938 1196.007812 105.484375 1198.226562 101.261719 C 1200.449219 97.003906 1201.558594 92.675781 1201.558594 88.273438 C 1201.558594 80.300781 1198.683594 73.789062 1192.933594 68.730469 C 1187.183594 63.671875 1179.558594 61.144531 1170.0625 61.144531 Z M 1148.828125 61.144531 "/>
</g>
<g clip-path="url(#clip2)" clip-rule="nonzero">
<path style=" stroke:none;fill-rule:nonzero;fill:rgb(79.199219%,20.399475%,19.999695%);fill-opacity:1;" d="M 505.675781 360.917969 L 490.425781 360.917969 L 490.425781 328.691406 L 494.5 328.691406 L 494.5 357.269531 L 505.675781 357.269531 Z M 519.03125 361.351562 C 517.527344 361.351562 516.117188 360.972656 514.804688 360.21875 C 513.492188 359.46875 512.429688 358.378906 511.617188 356.949219 C 510.804688 355.511719 510.402344 353.792969 510.402344 351.792969 L 510.402344 339.4375 L 514.265625 339.4375 L 514.265625 351.246094 C 514.265625 352.945312 514.773438 354.441406 515.785156 355.742188 C 516.800781 357.039062 518.226562 357.691406 520.0625 357.691406 C 521.570312 357.691406 522.914062 357.152344 524.09375 356.070312 C 525.277344 354.984375 525.867188 353.414062 525.867188 351.359375 L 525.867188 339.4375 L 529.734375 339.4375 L 529.734375 360.917969 L 526.15625 360.917969 L 526.15625 357.441406 C 525.367188 358.707031 524.347656 359.675781 523.09375 360.339844 C 521.835938 361.015625 520.480469 361.351562 519.03125 361.351562 M 540.46875 360.917969 L 536.601562 360.917969 L 536.601562 339.4375 L 540.183594 339.4375 L 540.183594 342.902344 C 540.972656 341.636719 541.992188 340.671875 543.246094 340.003906 C 544.503906 339.339844 545.855469 339.003906 547.308594 339.003906 C 548.839844 339.003906 550.257812 339.378906 551.554688 340.128906 C 552.855469 340.886719 553.910156 341.972656 554.722656 343.386719 C 555.53125 344.8125 555.9375 346.535156 555.9375 348.5625 L 555.9375 360.917969 L 552.070312 360.917969 L 552.070312 349.101562 C 552.070312 347.410156 551.566406 345.910156 550.554688 344.605469 C 549.539062 343.304688 548.113281 342.65625 546.277344 342.65625 C 544.769531 342.65625 543.425781 343.199219 542.246094 344.285156 C 541.0625 345.371094 540.46875 346.941406 540.46875 348.996094 Z M 571.085938 372.085938 C 569.4375 372.085938 567.9375 371.847656 566.589844 371.375 C 565.242188 370.894531 564.042969 370.238281 562.992188 369.40625 L 564.066406 365.03125 C 564.78125 366.0625 565.734375 366.898438 566.929688 367.539062 C 568.128906 368.183594 569.5 368.507812 571.046875 368.507812 C 573.457031 368.507812 575.410156 367.78125 576.902344 366.320312 C 578.394531 364.871094 579.140625 362.996094 579.140625 360.703125 L 579.140625 358.09375 C 578.183594 359.046875 577.058594 359.804688 575.757812 360.363281 C 574.460938 360.925781 573.066406 361.207031 571.582031 361.207031 C 569.628906 361.207031 567.839844 360.710938 566.210938 359.722656 C 564.585938 358.730469 563.292969 357.402344 562.332031 355.730469 C 561.363281 354.054688 560.878906 352.199219 560.878906 350.171875 C 560.878906 348.144531 561.363281 346.296875 562.332031 344.625 C 563.292969 342.953125 564.585938 341.625 566.210938 340.632812 C 567.839844 339.644531 569.628906 339.148438 571.582031 339.148438 C 573.066406 339.148438 574.460938 339.425781 575.757812 339.972656 C 577.058594 340.523438 578.183594 341.289062 579.140625 342.265625 L 579.140625 339.4375 L 582.71875 339.4375 L 582.71875 360.917969 C 582.71875 363.253906 582.175781 365.257812 581.089844 366.929688 C 580.003906 368.601562 578.578125 369.878906 576.808594 370.765625 C 575.042969 371.644531 573.136719 372.085938 571.085938 372.085938 M 572.085938 357.691406 C 573.449219 357.691406 574.683594 357.355469 575.789062 356.679688 C 576.902344 356 577.785156 355.09375 578.441406 353.957031 C 579.097656 352.824219 579.429688 351.5625 579.429688 350.171875 C 579.429688 348.792969 579.097656 347.535156 578.441406 346.398438 C 577.785156 345.265625 576.902344 344.355469 575.789062 343.675781 C 574.683594 342.996094 573.449219 342.65625 572.085938 342.65625 C 570.726562 342.65625 569.492188 342.996094 568.386719 343.675781 C 567.273438 344.355469 566.386719 345.265625 565.734375 346.398438 C 565.074219 347.535156 564.746094 348.792969 564.746094 350.171875 C 564.746094 351.5625 565.074219 352.824219 565.734375 353.957031 C 566.386719 355.09375 567.273438 356 568.386719 356.679688 C 569.492188 357.355469 570.726562 357.691406 572.085938 357.691406 M 615.871094 361.566406 C 613.554688 361.566406 611.375 361.132812 609.335938 360.257812 C 607.292969 359.386719 605.503906 358.1875 603.960938 356.660156 C 602.421875 355.132812 601.21875 353.351562 600.351562 351.316406 C 599.480469 349.289062 599.042969 347.117188 599.042969 344.800781 C 599.042969 342.492188 599.480469 340.320312 600.351562 338.292969 C 601.21875 336.257812 602.421875 334.476562 603.960938 332.953125 C 605.503906 331.425781 607.292969 330.226562 609.335938 329.351562 C 611.375 328.480469 613.554688 328.042969 615.871094 328.042969 C 618.160156 328.042969 620.308594 328.46875 622.316406 329.320312 C 624.324219 330.167969 626.09375 331.328125 627.617188 332.808594 L 626.433594 337.746094 C 625.339844 335.988281 623.863281 334.574219 622.007812 333.507812 C 620.160156 332.441406 618.113281 331.910156 615.871094 331.910156 C 613.507812 331.910156 611.375 332.492188 609.480469 333.652344 C 607.582031 334.808594 606.074219 336.359375 604.953125 338.304688 C 603.832031 340.25 603.269531 342.414062 603.269531 344.800781 C 603.269531 347.164062 603.832031 349.328125 604.953125 351.285156 C 606.074219 353.246094 607.582031 354.804688 609.480469 355.957031 C 611.375 357.113281 613.507812 357.691406 615.871094 357.691406 C 618.140625 357.691406 620.191406 357.15625 622.027344 356.082031 C 623.871094 355.007812 625.339844 353.605469 626.433594 351.863281 L 627.617188 356.804688 C 626.09375 358.253906 624.324219 359.410156 622.316406 360.269531 C 620.308594 361.136719 618.160156 361.566406 615.871094 361.566406 M 641.757812 361.207031 C 639.796875 361.207031 638.003906 360.710938 636.382812 359.722656 C 634.761719 358.730469 633.46875 357.402344 632.507812 355.730469 C 631.535156 354.054688 631.050781 352.199219 631.050781 350.171875 C 631.050781 348.144531 631.535156 346.296875 632.507812 344.625 C 633.46875 342.953125 634.761719 341.625 636.382812 340.632812 C 638.003906 339.644531 639.796875 339.148438 641.757812 339.148438 C 643.234375 339.148438 644.625 339.425781 645.933594 339.972656 C 647.230469 340.523438 648.359375 341.289062 649.316406 342.265625 L 649.316406 339.4375 L 652.894531 339.4375 L 652.894531 360.917969 L 649.316406 360.917969 L 649.316406 358.09375 C 648.359375 359.046875 647.230469 359.804688 645.933594 360.363281 C 644.625 360.925781 643.234375 361.207031 641.757812 361.207031 M 642.261719 357.691406 C 643.621094 357.691406 644.855469 357.355469 645.964844 356.679688 C 647.078125 356 647.960938 355.09375 648.613281 353.957031 C 649.273438 352.824219 649.601562 351.5625 649.601562 350.171875 C 649.601562 348.792969 649.273438 347.535156 648.613281 346.398438 C 647.960938 345.265625 647.078125 344.355469 645.964844 343.675781 C 644.855469 342.996094 643.621094 342.65625 642.261719 342.65625 C 640.898438 342.65625 639.664062 342.996094 638.546875 343.675781 C 637.441406 344.355469 636.558594 345.265625 635.898438 346.398438 C 635.246094 347.535156 634.917969 348.792969 634.917969 350.171875 C 634.917969 351.5625 635.246094 352.824219 635.898438 353.957031 C 636.558594 355.09375 637.441406 356 638.546875 356.679688 C 639.664062 357.355469 640.898438 357.691406 642.261719 357.691406 M 663.628906 360.917969 L 659.761719 360.917969 L 659.761719 339.4375 L 663.347656 339.4375 L 663.347656 342.902344 C 664.132812 341.636719 665.152344 340.671875 666.402344 340.003906 C 667.660156 339.339844 669.019531 339.003906 670.476562 339.003906 C 672 339.003906 673.414062 339.378906 674.714844 340.128906 C 676.011719 340.886719 677.066406 341.972656 677.878906 343.386719 C 678.691406 344.8125 679.097656 346.535156 679.097656 348.5625 L 679.097656 360.917969 L 675.230469 360.917969 L 675.230469 349.101562 C 675.230469 347.410156 674.722656 345.910156 673.714844 344.605469 C 672.695312 343.304688 671.269531 342.65625 669.433594 342.65625 C 667.929688 342.65625 666.582031 343.199219 665.402344 344.285156 C 664.21875 345.371094 663.628906 346.941406 663.628906 348.996094 Z M 695.421875 361.351562 C 693.324219 361.351562 691.414062 360.847656 689.695312 359.847656 C 687.976562 358.84375 686.605469 357.492188 685.582031 355.792969 C 684.550781 354.101562 684.035156 352.230469 684.035156 350.171875 C 684.035156 348.125 684.550781 346.25 685.582031 344.554688 C 686.605469 342.863281 687.976562 341.515625 689.695312 340.511719 C 691.414062 339.507812 693.324219 339.003906 695.421875 339.003906 C 696.972656 339.003906 698.429688 339.28125 699.792969 339.832031 C 701.152344 340.378906 702.347656 341.109375 703.371094 342.015625 L 702.195312 346.882812 C 701.597656 345.6875 700.695312 344.683594 699.492188 343.871094 C 698.285156 343.0625 696.914062 342.65625 695.390625 342.65625 C 694.007812 342.65625 692.75 342.996094 691.613281 343.675781 C 690.480469 344.355469 689.578125 345.265625 688.914062 346.398438 C 688.238281 347.535156 687.902344 348.792969 687.902344 350.171875 C 687.902344 351.535156 688.238281 352.789062 688.914062 353.9375 C 689.578125 355.085938 690.480469 356 691.613281 356.679688 C 692.75 357.355469 694.007812 357.691406 695.390625 357.691406 C 696.914062 357.691406 698.285156 357.296875 699.492188 356.515625 C 700.695312 355.722656 701.597656 354.710938 702.195312 353.472656 L 703.371094 358.339844 C 702.347656 359.246094 701.152344 359.976562 699.792969 360.527344 C 698.429688 361.078125 696.972656 361.351562 695.421875 361.351562 M 718.332031 361.351562 C 716.09375 361.351562 714.082031 360.847656 712.300781 359.847656 C 710.527344 358.84375 709.132812 357.472656 708.113281 355.742188 C 707.105469 354.015625 706.597656 352.085938 706.597656 349.957031 C 706.597656 347.929688 707.085938 346.085938 708.0625 344.429688 C 709.039062 342.773438 710.359375 341.453125 712.023438 340.46875 C 713.679688 339.492188 715.511719 339.003906 717.519531 339.003906 C 719.5 339.003906 721.308594 339.476562 722.953125 340.417969 C 724.601562 341.359375 725.917969 342.632812 726.890625 344.234375 C 727.875 345.835938 728.367188 347.648438 728.367188 349.679688 L 728.367188 351.246094 L 714.332031 351.246094 C 713.707031 351.246094 713.074219 351.226562 712.433594 351.183594 C 711.789062 351.136719 711.152344 351.0625 710.527344 350.96875 C 710.796875 352.871094 711.660156 354.46875 713.125 355.761719 C 714.597656 357.046875 716.347656 357.691406 718.375 357.691406 C 719.734375 357.691406 721 357.382812 722.167969 356.761719 C 723.339844 356.144531 724.28125 355.324219 724.996094 354.296875 L 726.066406 358.703125 C 725.042969 359.53125 723.867188 360.183594 722.539062 360.648438 C 721.222656 361.117188 719.820312 361.351562 718.332031 361.351562 M 710.425781 348.347656 C 711.714844 348.132812 713.019531 348.027344 714.332031 348.027344 L 721.457031 348.027344 C 721.980469 348.027344 722.5 348.046875 723.015625 348.078125 C 723.523438 348.113281 724.042969 348.15625 724.574219 348.203125 C 724.234375 346.53125 723.398438 345.15625 722.066406 344.066406 C 720.726562 342.980469 719.210938 342.4375 717.519531 342.4375 C 715.773438 342.4375 714.242188 343.019531 712.929688 344.183594 C 711.617188 345.335938 710.78125 346.726562 710.425781 348.347656 M 737.378906 360.917969 L 733.511719 360.917969 L 733.511719 339.4375 L 737.101562 339.4375 L 737.101562 343.378906 C 737.863281 342.113281 738.878906 341.101562 740.144531 340.34375 C 741.410156 339.597656 742.910156 339.222656 744.648438 339.222656 L 745.621094 343.089844 C 745.164062 342.945312 744.640625 342.871094 744.042969 342.871094 C 742.039062 342.871094 740.429688 343.511719 739.207031 344.789062 C 737.988281 346.070312 737.378906 347.886719 737.378906 350.246094 Z M 767.242188 332.34375 L 758.644531 332.34375 L 758.644531 328.691406 L 779.917969 328.691406 L 779.917969 332.34375 L 771.328125 332.34375 L 771.328125 360.917969 L 767.242188 360.917969 Z M 800.613281 361.566406 C 798.296875 361.566406 796.117188 361.132812 794.074219 360.257812 C 792.035156 359.386719 790.242188 358.1875 788.703125 356.660156 C 787.164062 355.132812 785.957031 353.351562 785.082031 351.316406 C 784.21875 349.289062 783.785156 347.117188 783.785156 344.800781 C 783.785156 342.492188 784.21875 340.320312 785.082031 338.292969 C 785.957031 336.257812 787.164062 334.476562 788.703125 332.953125 C 790.242188 331.425781 792.035156 330.226562 794.074219 329.351562 C 796.117188 328.480469 798.296875 328.042969 800.613281 328.042969 C 802.902344 328.042969 805.050781 328.46875 807.058594 329.320312 C 809.058594 330.167969 810.824219 331.328125 812.347656 332.808594 L 811.171875 337.746094 C 810.074219 335.988281 808.597656 334.574219 806.75 333.507812 C 804.898438 332.441406 802.855469 331.910156 800.613281 331.910156 C 798.25 331.910156 796.117188 332.492188 794.21875 333.652344 C 792.324219 334.808594 790.8125 336.359375 789.691406 338.304688 C 788.566406 340.25 788.003906 342.414062 788.003906 344.800781 C 788.003906 347.164062 788.566406 349.328125 789.691406 351.285156 C 790.8125 353.246094 792.324219 354.804688 794.21875 355.957031 C 796.117188 357.113281 798.25 357.691406 800.613281 357.691406 C 802.875 357.691406 804.925781 357.15625 806.769531 356.082031 C 808.605469 355.007812 810.074219 353.605469 811.171875 351.863281 L 812.347656 356.804688 C 810.824219 358.253906 809.058594 359.410156 807.058594 360.269531 C 805.050781 361.136719 802.902344 361.566406 800.613281 361.566406 M 822.558594 360.917969 L 818.472656 360.917969 L 818.472656 328.691406 L 826.570312 328.691406 C 828.597656 328.691406 830.339844 329.097656 831.796875 329.910156 C 833.246094 330.722656 834.375 331.789062 835.179688 333.117188 C 835.976562 334.445312 836.375 335.894531 836.375 337.46875 C 836.375 339.234375 835.875 340.820312 834.871094 342.222656 C 833.867188 343.632812 832.496094 344.671875 830.757812 345.347656 L 841.574219 360.917969 L 836.808594 360.917969 L 826.570312 346.089844 L 822.558594 346.089844 Z M 822.558594 332.34375 L 822.558594 342.65625 L 826.570312 342.65625 C 827.949219 342.65625 829.078125 342.402344 829.953125 341.890625 C 830.824219 341.375 831.46875 340.71875 831.878906 339.921875 C 832.300781 339.117188 832.507812 338.300781 832.507812 337.46875 C 832.507812 335.964844 831.964844 334.734375 830.878906 333.777344 C 829.792969 332.820312 828.355469 332.34375 826.570312 332.34375 Z M 867.589844 360.917969 L 857.03125 360.917969 L 857.03125 328.691406 L 867.589844 328.691406 C 870.503906 328.691406 873.042969 329.171875 875.199219 330.125 C 877.359375 331.082031 879.144531 332.347656 880.554688 333.921875 C 881.960938 335.496094 883.015625 337.230469 883.707031 339.128906 C 884.402344 341.027344 884.75 342.917969 884.75 344.800781 C 884.75 346.691406 884.402344 348.585938 883.707031 350.484375 C 883.015625 352.378906 881.960938 354.117188 880.554688 355.691406 C 879.144531 357.265625 877.359375 358.53125 875.199219 359.484375 C 873.042969 360.441406 870.503906 360.917969 867.589844 360.917969 M 861.113281 332.34375 L 861.113281 357.269531 L 867.167969 357.269531 C 869.648438 357.269531 871.734375 356.878906 873.425781 356.101562 C 875.125 355.324219 876.5 354.3125 877.550781 353.058594 C 878.597656 351.808594 879.351562 350.453125 879.820312 348.996094 C 880.289062 347.539062 880.523438 346.140625 880.523438 344.800781 C 880.523438 343.46875 880.289062 342.070312 879.820312 340.613281 C 879.351562 339.15625 878.597656 337.800781 877.550781 336.550781 C 876.5 335.300781 875.125 334.285156 873.425781 333.507812 C 871.734375 332.730469 869.648438 332.34375 867.167969 332.34375 Z M 899.527344 361.207031 C 897.574219 361.207031 895.785156 360.710938 894.15625 359.722656 C 892.53125 358.730469 891.238281 357.402344 890.277344 355.730469 C 889.308594 354.054688 888.824219 352.199219 888.824219 350.171875 C 888.824219 348.144531 889.308594 346.296875 890.277344 344.625 C 891.238281 342.953125 892.53125 341.625 894.15625 340.632812 C 895.785156 339.644531 897.574219 339.148438 899.527344 339.148438 C 901.011719 339.148438 902.40625 339.425781 903.703125 339.972656 C 905.003906 340.523438 906.128906 341.289062 907.085938 342.265625 L 907.085938 339.4375 L 910.664062 339.4375 L 910.664062 360.917969 L 907.085938 360.917969 L 907.085938 358.09375 C 906.128906 359.046875 905.003906 359.804688 903.703125 360.363281 C 902.40625 360.925781 901.011719 361.207031 899.527344 361.207031 M 900.03125 357.691406 C 901.394531 357.691406 902.628906 357.355469 903.734375 356.679688 C 904.847656 356 905.730469 355.09375 906.386719 353.957031 C 907.042969 352.824219 907.375 351.5625 907.375 350.171875 C 907.375 348.792969 907.042969 347.535156 906.386719 346.398438 C 905.730469 345.265625 904.847656 344.355469 903.734375 343.675781 C 902.628906 342.996094 901.394531 342.65625 900.03125 342.65625 C 898.671875 342.65625 897.4375 342.996094 896.332031 343.675781 C 895.21875 344.355469 894.332031 345.265625 893.679688 346.398438 C 893.019531 347.535156 892.691406 348.792969 892.691406 350.171875 C 892.691406 351.5625 893.019531 352.824219 893.679688 353.957031 C 894.332031 355.09375 895.21875 356 896.332031 356.679688 C 897.4375 357.355469 898.671875 357.691406 900.03125 357.691406 M 923.914062 360.917969 L 920.046875 360.917969 L 920.046875 342.65625 L 915.171875 342.65625 L 915.171875 339.4375 L 920.152344 339.4375 L 920.152344 332.269531 L 923.800781 332.269531 L 923.800781 339.4375 L 929.144531 339.4375 L 929.144531 342.65625 L 923.914062 342.65625 Z M 942.847656 361.207031 C 940.894531 361.207031 939.105469 360.710938 937.476562 359.722656 C 935.851562 358.730469 934.5625 357.402344 933.597656 355.730469 C 932.628906 354.054688 932.144531 352.199219 932.144531 350.171875 C 932.144531 348.144531 932.628906 346.296875 933.597656 344.625 C 934.5625 342.953125 935.851562 341.625 937.476562 340.632812 C 939.105469 339.644531 940.894531 339.148438 942.847656 339.148438 C 944.332031 339.148438 945.726562 339.425781 947.023438 339.972656 C 948.324219 340.523438 949.453125 341.289062 950.40625 342.265625 L 950.40625 339.4375 L 953.984375 339.4375 L 953.984375 360.917969 L 950.40625 360.917969 L 950.40625 358.09375 C 949.453125 359.046875 948.324219 359.804688 947.023438 360.363281 C 945.726562 360.925781 944.332031 361.207031 942.847656 361.207031 M 943.355469 357.691406 C 944.714844 357.691406 945.949219 357.355469 947.054688 356.679688 C 948.167969 356 949.054688 355.09375 949.707031 353.957031 C 950.367188 352.824219 950.695312 351.5625 950.695312 350.171875 C 950.695312 348.792969 950.367188 347.535156 949.707031 346.398438 C 949.054688 345.265625 948.167969 344.355469 947.054688 343.675781 C 945.949219 342.996094 944.714844 342.65625 943.355469 342.65625 C 941.992188 342.65625 940.753906 342.996094 939.640625 343.675781 C 938.535156 344.355469 937.65625 345.265625 937 346.398438 C 936.339844 347.535156 936.011719 348.792969 936.011719 350.171875 C 936.011719 351.5625 936.339844 352.824219 937 353.957031 C 937.65625 355.09375 938.535156 356 939.640625 356.679688 C 940.753906 357.355469 941.992188 357.691406 943.355469 357.691406 M 971.992188 361.207031 C 970.511719 361.207031 969.128906 360.925781 967.84375 360.363281 C 966.550781 359.804688 965.417969 359.046875 964.441406 358.09375 L 964.441406 360.917969 L 960.863281 360.917969 L 960.863281 326.546875 L 964.730469 326.546875 L 964.730469 341.976562 C 965.679688 341.09375 966.777344 340.402344 968.019531 339.902344 C 969.265625 339.402344 970.589844 339.148438 971.992188 339.148438 C 973.976562 339.148438 975.773438 339.644531 977.382812 340.632812 C 978.992188 341.625 980.28125 342.953125 981.25 344.625 C 982.21875 346.296875 982.703125 348.144531 982.703125 350.171875 C 982.703125 352.199219 982.21875 354.054688 981.25 355.730469 C 980.28125 357.402344 978.992188 358.730469 977.382812 359.722656 C 975.773438 360.710938 973.976562 361.207031 971.992188 361.207031 M 971.496094 357.691406 C 972.855469 357.691406 974.089844 357.355469 975.199219 356.679688 C 976.3125 356 977.195312 355.09375 977.847656 353.957031 C 978.507812 352.824219 978.835938 351.5625 978.835938 350.171875 C 978.835938 348.792969 978.507812 347.535156 977.847656 346.398438 C 977.195312 345.265625 976.3125 344.355469 975.199219 343.675781 C 974.089844 342.996094 972.855469 342.65625 971.496094 342.65625 C 970.132812 342.65625 968.898438 342.996094 967.78125 343.675781 C 966.675781 344.355469 965.792969 345.265625 965.132812 346.398438 C 964.480469 347.535156 964.152344 348.792969 964.152344 350.171875 C 964.152344 351.5625 964.480469 352.824219 965.132812 353.957031 C 965.792969 355.09375 966.675781 356 967.78125 356.679688 C 968.898438 357.355469 970.132812 357.691406 971.496094 357.691406 M 997.277344 361.207031 C 995.316406 361.207031 993.527344 360.710938 991.902344 359.722656 C 990.28125 358.730469 988.984375 357.402344 988.015625 355.730469 C 987.046875 354.054688 986.5625 352.199219 986.5625 350.171875 C 986.5625 348.144531 987.046875 346.296875 988.015625 344.625 C 988.984375 342.953125 990.28125 341.625 991.902344 340.632812 C 993.527344 339.644531 995.316406 339.148438 997.277344 339.148438 C 998.753906 339.148438 1000.140625 339.425781 1001.441406 339.972656 C 1002.742188 340.523438 1003.867188 341.289062 1004.824219 342.265625 L 1004.824219 339.4375 L 1008.402344 339.4375 L 1008.402344 360.917969 L 1004.824219 360.917969 L 1004.824219 358.09375 C 1003.867188 359.046875 1002.742188 359.804688 1001.441406 360.363281 C 1000.140625 360.925781 998.753906 361.207031 997.277344 361.207031 M 997.769531 357.691406 C 999.132812 357.691406 1000.367188 357.355469 1001.472656 356.679688 C 1002.585938 356 1003.46875 355.09375 1004.121094 353.957031 C 1004.78125 352.824219 1005.113281 351.5625 1005.113281 350.171875 C 1005.113281 348.792969 1004.78125 347.535156 1004.121094 346.398438 C 1003.46875 345.265625 1002.585938 344.355469 1001.472656 343.675781 C 1000.367188 342.996094 999.132812 342.65625 997.769531 342.65625 C 996.410156 342.65625 995.175781 342.996094 994.070312 343.675781 C 992.953125 344.355469 992.070312 345.265625 991.417969 346.398438 C 990.757812 347.535156 990.429688 348.792969 990.429688 350.171875 C 990.429688 351.5625 990.757812 352.824219 991.417969 353.957031 C 992.070312 355.09375 992.953125 356 994.070312 356.679688 C 995.175781 357.355469 996.410156 357.691406 997.769531 357.691406 M 1020.828125 361.351562 C 1019.730469 361.351562 1018.554688 361.140625 1017.300781 360.722656 C 1016.050781 360.304688 1014.972656 359.605469 1014.0625 358.628906 L 1015.136719 354.402344 C 1015.804688 355.523438 1016.664062 356.410156 1017.714844 357.070312 C 1018.765625 357.726562 1019.886719 358.050781 1021.074219 358.050781 C 1022.222656 358.050781 1023.082031 357.773438 1023.652344 357.214844 C 1024.230469 356.652344 1024.519531 355.964844 1024.519531 355.152344 C 1024.519531 354.226562 1024.214844 353.546875 1023.601562 353.113281 C 1022.996094 352.6875 1022.453125 352.386719 1021.972656 352.214844 L 1019.074219 351.113281 C 1018.546875 350.890625 1017.914062 350.574219 1017.179688 350.164062 C 1016.433594 349.742188 1015.789062 349.136719 1015.238281 348.347656 C 1014.6875 347.5625 1014.414062 346.539062 1014.414062 345.273438 C 1014.414062 344.125 1014.6875 343.074219 1015.238281 342.121094 C 1015.789062 341.164062 1016.566406 340.40625 1017.570312 339.851562 C 1018.574219 339.285156 1019.757812 339.003906 1021.117188 339.003906 C 1022.191406 339.003906 1023.308594 339.199219 1024.480469 339.582031 C 1025.648438 339.960938 1026.636719 340.601562 1027.449219 341.511719 L 1026.375 345.738281 C 1025.804688 344.6875 1025.027344 343.851562 1024.046875 343.234375 C 1023.070312 342.609375 1022.054688 342.292969 1021.003906 342.292969 C 1020.027344 342.292969 1019.257812 342.570312 1018.695312 343.121094 C 1018.136719 343.667969 1017.859375 344.300781 1017.859375 345.015625 C 1017.859375 345.59375 1018.046875 346.109375 1018.425781 346.5625 C 1018.8125 347.019531 1019.386719 347.386719 1020.148438 347.667969 L 1023.046875 348.78125 C 1023.574219 348.972656 1024.222656 349.28125 1024.996094 349.710938 C 1025.769531 350.140625 1026.457031 350.765625 1027.058594 351.574219 C 1027.65625 352.386719 1027.953125 353.484375 1027.953125 354.863281 C 1027.953125 356.796875 1027.28125 358.359375 1025.933594 359.558594 C 1024.585938 360.753906 1022.882812 361.351562 1020.828125 361.351562 M 1043.773438 361.351562 C 1041.53125 361.351562 1039.519531 360.847656 1037.742188 359.847656 C 1035.964844 358.84375 1034.570312 357.472656 1033.554688 355.742188 C 1032.542969 354.015625 1032.039062 352.085938 1032.039062 349.957031 C 1032.039062 347.929688 1032.527344 346.085938 1033.503906 344.429688 C 1034.476562 342.773438 1035.796875 341.453125 1037.460938 340.46875 C 1039.117188 339.492188 1040.949219 339.003906 1042.957031 339.003906 C 1044.9375 339.003906 1046.75 339.476562 1048.394531 340.417969 C 1050.042969 341.359375 1051.355469 342.632812 1052.332031 344.234375 C 1053.316406 345.835938 1053.804688 347.648438 1053.804688 349.679688 L 1053.804688 351.246094 L 1039.773438 351.246094 C 1039.144531 351.246094 1038.511719 351.226562 1037.863281 351.183594 C 1037.226562 351.136719 1036.59375 351.0625 1035.964844 350.96875 C 1036.234375 352.871094 1037.101562 354.46875 1038.566406 355.761719 C 1040.035156 357.046875 1041.785156 357.691406 1043.8125 357.691406 C 1045.175781 357.691406 1046.441406 357.382812 1047.609375 356.761719 C 1048.777344 356.144531 1049.71875 355.324219 1050.433594 354.296875 L 1051.507812 358.703125 C 1050.484375 359.53125 1049.308594 360.183594 1047.980469 360.648438 C 1046.660156 361.117188 1045.257812 361.351562 1043.773438 361.351562 M 1035.863281 348.347656 C 1037.15625 348.132812 1038.457031 348.027344 1039.773438 348.027344 L 1046.886719 348.027344 C 1047.417969 348.027344 1047.9375 348.046875 1048.453125 348.078125 C 1048.964844 348.113281 1049.480469 348.15625 1050.011719 348.203125 C 1049.675781 346.53125 1048.839844 345.15625 1047.507812 344.066406 C 1046.164062 342.980469 1044.648438 342.4375 1042.957031 342.4375 C 1041.210938 342.4375 1039.683594 343.019531 1038.371094 344.183594 C 1037.054688 345.335938 1036.222656 346.726562 1035.863281 348.347656 "/>
</g>
<g clip-path="url(#clip3)" clip-rule="nonzero">
<path style=" stroke:none;fill-rule:nonzero;fill:rgb(26.298523%,24.699402%,24.699402%);fill-opacity:1;" d="M 256.949219 228.777344 C 254.535156 203.429688 241.425781 116.949219 173.777344 79.191406 C 165.800781 75.484375 165.058594 85.246094 165.058594 85.246094 L 165.058594 152.179688 L 152.203125 145.484375 L 152.203125 43.101562 C 152.203125 40.265625 149.902344 37.964844 147.066406 37.964844 C 144.230469 37.964844 141.933594 40.265625 141.933594 43.101562 L 141.933594 145.484375 L 129.078125 152.175781 L 129.078125 87.8125 C 129.078125 77.070312 118.21875 80.8125 116.449219 81.492188 C 50.277344 121.519531 38.847656 209.007812 37.003906 230.847656 C 36.96875 231.792969 36.902344 243.484375 51.957031 237.429688 L 121.269531 209.5 L 121.300781 209.488281 L 122.007812 209.203125 C 123.949219 208.300781 129.078125 205.035156 129.078125 195.667969 L 129.078125 163.761719 L 147.074219 154.390625 L 165.066406 163.761719 L 165.066406 196.046875 C 165.214844 199.238281 166.472656 206.917969 174.996094 210.355469 L 245.019531 238.570312 C 245.207031 238.644531 258.816406 243.746094 256.949219 228.777344 M 118.800781 157.53125 L 90.625 172.203125 C 89.007812 173.257812 86.984375 175.316406 88.660156 178.535156 C 91.207031 183.421875 96.925781 180.507812 97.050781 180.445312 L 118.800781 169.117188 L 118.800781 199.417969 L 47.632812 228.09375 C 50.375 203.316406 63.15625 128.117188 118.800781 92.074219 Z M 175.332031 199.421875 L 175.332031 169.117188 L 199.617188 181.765625 C 201.5 182.285156 203.601562 182.121094 204.886719 179.660156 C 207.648438 174.359375 202.15625 171.503906 202.15625 171.503906 L 175.332031 157.53125 L 175.332031 92.078125 C 230.902344 128.078125 243.726562 203.296875 246.492188 228.09375 Z M 175.332031 199.421875 "/>
</g>
</g>
</svg>
